<?xml version="1.0" encoding="UTF-8" standalone="no"?>
<!-- Generator: Adobe Illustrator 19.0.1, SVG Export Plug-In . SVG Version: 6.00 Build 0)  -->

<svg
   xmlns:dc="http://purl.org/dc/elements/1.1/"
   xmlns:cc="http://creativecommons.org/ns#"
   xmlns:rdf="http://www.w3.org/1999/02/22-rdf-syntax-ns#"
   xmlns:svg="http://www.w3.org/2000/svg"
   xmlns="http://www.w3.org/2000/svg"
   xmlns:sodipodi="http://sodipodi.sourceforge.net/DTD/sodipodi-0.dtd"
   xmlns:inkscape="http://www.inkscape.org/namespaces/inkscape"
   version="1.1"
   id="dw_x5F_cc_x5F_app_x5F_RGB.svg"
   x="0px"
   y="0px"
   viewBox="0 0 4096 4096"
   xml:space="preserve"
   sodipodi:docname="adobe-dreamweaver-logo.svg"
   width="4096"
   height="4096"
   inkscape:export-filename="G:\Users\suitedoalex\sites\adobe-dreamweaver-logo-0.png"
   inkscape:export-xdpi="96"
   inkscape:export-ydpi="96"
   inkscape:version="0.92.2 (5c3e80d, 2017-08-06)"><metadata
     id="metadata17"><rdf:RDF><cc:Work
         rdf:about=""><dc:format>image/svg+xml</dc:format><dc:type
           rdf:resource="http://purl.org/dc/dcmitype/StillImage" /><dc:title></dc:title></cc:Work></rdf:RDF></metadata><defs
     id="defs15" /><sodipodi:namedview
     pagecolor="#ffffff"
     bordercolor="#666666"
     borderopacity="1"
     objecttolerance="10"
     gridtolerance="10"
     guidetolerance="10"
     inkscape:pageopacity="0"
     inkscape:pageshadow="2"
     inkscape:window-width="1920"
     inkscape:window-height="1017"
     id="namedview13"
     showgrid="false"
     inkscape:zoom="0.089143804"
     inkscape:cx="387.67917"
     inkscape:cy="1629.0687"
     inkscape:window-x="-8"
     inkscape:window-y="-8"
     inkscape:window-maximized="1"
     inkscape:current-layer="dw_x5F_cc_x5F_app_x5F_RGB.svg" /><g
     id="g4"
     transform="matrix(12.26577,0,0,12.26577,576.10147,612.90491)"
     inkscape:export-filename="G:\Users\suitedoalex\sites\adobe-dreamweaver-logo-4.png"
     inkscape:export-xdpi="13.044378"
     inkscape:export-ydpi="13.044378"><rect
       x="10"
       y="10"
       style="clip-rule:evenodd;fill:#072600;fill-rule:evenodd"
       width="220"
       height="214"
       id="rect2" /></g><g
     id="g8"
     transform="matrix(12.26577,0,0,12.26577,576.10147,612.90491)"
     inkscape:export-filename="G:\Users\suitedoalex\sites\adobe-dreamweaver-logo-4.png"
     inkscape:export-xdpi="13.044378"
     inkscape:export-ydpi="13.044378"><path
       style="clip-rule:evenodd;fill:#35fa00;fill-rule:evenodd"
       d="M 0,0 V 234 H 240.001 V 0 Z M 10,10 H 230.001 V 224 H 10 Z"
       id="path6"
       inkscape:connector-curvature="0" /></g><path
     style="clip-rule:evenodd;fill:#35fa00;fill-rule:evenodd;stroke-width:12.26576996"
     d="m 959.40675,1288.5649 c 0,-10.1193 2.02385,-14.167 14.16696,-16.1908 46.54859,-2.0239 180.24539,-6.0716 317.86739,-6.0716 410.8419,0 615.2509,265.1245 615.2509,653.7041 0,540.3685 -354.1741,704.3005 -627.394,704.3005 -103.2165,0 -253.1041,-2.0239 -307.74814,-4.0477 -8.09541,0 -12.14311,-6.0593 -12.14311,-16.1908 z m 220.78375,1137.4047 c 34.4055,2.0239 64.7633,4.0477 103.2165,4.0477 226.6714,0 394.5898,-159.8843 396.6136,-503.9392 2.0239,-335.9594 -171.966,-465.4859 -388.5182,-465.4859 -42.5009,0 -76.9186,2.0238 -111.3119,4.0477 z m 1556.244,192.4008 c -14.1547,0 -18.2024,-5.4582 -20.2262,-17.6137 -60.7156,-337.9831 -111.312,-576.9203 -133.5744,-742.8639 h -2.0238 c -26.3101,149.7528 -74.8825,398.8215 -155.8366,744.8878 -4.0477,12.1309 -8.0954,15.5898 -18.2147,15.5898 h -198.3374 c -14.167,0 -18.2147,-2.0361 -22.2624,-14.1792 l -216.5644,-966.2359 c -2.0239,-8.0954 2.0238,-16.1908 14.1669,-16.1908 h 198.3376 c 8.0954,0 14.167,2.821 16.1908,10.9164 76.9186,435.1283 109.288,660.5118 121.4311,749.5613 h 8.0954 c 14.1547,-105.2403 56.6679,-324.5646 147.7412,-745.5136 4.0477,-12.1431 4.0477,-14.9641 16.1785,-14.9641 h 208.4568 c 10.1192,0 12.1431,4.9062 14.1669,15.0255 70.8349,398.6988 117.3834,650.3925 129.5388,751.5851 h 6.0593 c 20.2385,-129.5389 46.5487,-304.3261 133.5865,-753.609 2.0239,-8.0954 4.0477,-13.0016 14.1548,-13.0016 h 186.2066 c 8.0832,0 14.1669,4.0477 10.1192,14.1669 l -240.8505,968.2475 c -2.0239,10.1316 -4.0477,14.1793 -18.2025,14.1793 h -198.3375 z"
     id="path10"
     inkscape:connector-curvature="0"
     inkscape:export-filename="G:\Users\suitedoalex\sites\adobe-dreamweaver-logo-4.png"
     inkscape:export-xdpi="13.044378"
     inkscape:export-ydpi="13.044378" /></svg>